<?xml version="1.0" encoding="UTF-8"?>
<svg xmlns="http://www.w3.org/2000/svg" xmlns:xlink="http://www.w3.org/1999/xlink" viewBox="0 0 500 500">
  <defs>
    <style>
      .cls-1 {
        fill: #fff;
      }

      .cls-2 {
        fill: none;
      }

      .cls-3 {
        fill: #f15a29;
      }

      .cls-4 {
        clip-path: url(#clippath);
      }

      .cls-5 {
        fill: #262261;
      }
    </style>
    <clipPath id="clippath">
      <path class="cls-2" d="M500,250c0,129.89-99.06,236.65-225.76,248.84h-.01c-5,.48-10.04.82-15.13,1-3.02.11-6.05.16-9.1.16-39.41,0-76.69-9.12-109.84-25.36-4.67-2.29-9.25-4.71-13.74-7.27C57.1,427.88,8.51,356.19,1.01,272.66c-.67-7.47-1.01-15.02-1.01-22.66C0,111.93,111.93,0,250,0c109.78,0,203.04,70.76,236.65,169.16,8.65,25.36,13.35,52.55,13.35,80.84Z"/>
    </clipPath>
  </defs>
  <g id="circle_background" data-name="circle background">
    <path class="cls-3" d="M500,250c0,129.89-99.06,236.65-225.76,248.84h-.01c-5,.48-10.04.82-15.13,1-3.02.11-6.05.16-9.1.16-39.41,0-76.69-9.12-109.84-25.36-4.67-2.29-9.25-4.71-13.74-7.27C57.1,427.88,8.51,356.19,1.01,272.66c-.67-7.47-1.01-15.02-1.01-22.66C0,111.93,111.93,0,250,0c109.78,0,203.04,70.76,236.65,169.16,8.65,25.36,13.35,52.55,13.35,80.84Z"/>
  </g>
  <g id="mask">
    <g class="cls-4">
      <g>
        <rect class="cls-1" x="-.8" y="289" width="500" height="14.67"/>
        <rect class="cls-1" x="-.67" y="238.33" width="500" height="14.67"/>
        <rect class="cls-1" x="-.53" y="187.67" width="500" height="14.67"/>
        <rect class="cls-1" x="-.4" y="137" width="500" height="14.67"/>
        <rect class="cls-1" x="-.27" y="86.33" width="500" height="14.67"/>
        <rect class="cls-1" x="-.13" y="35.67" width="500" height="14.67"/>
      </g>
    </g>
  </g>
  <g id="mountain_background" data-name="mountain background">
    <path class="cls-5" d="M500,250c0,138.07-111.93,250-250,250-130.43,0-237.54-99.89-248.99-227.34,3.96-.02,6.78.46,13.99,2.34,11.65,3.05,15.75,7.44,25.78,10.67,2.93.94,14.69,4.58,27.55,2.22,17.96-3.3,33.99-17.55,40.45-33.78,5.17-12.99.38-17.68,7.11-30.22,5.98-11.16,13.29-14.03,20.89-21.33,10.28-9.89,11.48-18.67,15.85-35.82,1.47-5.74,3.29-12.43,5.93-20.41,8.1-24.5,16.69-51.34,37.77-70.89,6.15-5.69,26.22-12.24,43.59-14.66.96-.13,1.91-.26,2.85-.36,6.35-.73,12.19-.85,16.67-.09,16.28,2.75,6.49,20.67,11.56,33.34,5.93,14.8,12.22,24.27,13.78,30.22,2.73,10.46,2.94,16.62,7.55,28,3.93,9.69,6,10.71,9.78,18.67,9.82,20.63,6.33,35.68,10.45,46.38.16.38.32.76.47,1.12,1.12,2.48,2.72,4.71,5.08,6.72,1.95,1.65,8.21,6.74,15.56,5.78,6.26-.83,10.84-5.7,15.11-12,14.5-21.43,9.14-35.3,22.22-58.23,4.69-8.22,11.37-19.93,19.56-19.55,1,.05,1.99.27,3.14.95,3.81,2.25,9.29,9.48,22.19,31.69,12.59,21.69,14.52,27.13,20,27.8,8.3,1.02,11.77-10.48,30.67-22.22,1.32-.82,12.99-8.01,20.09-9.84,8.65,25.36,13.35,52.55,13.35,80.84Z"/>
  </g>
  <g id="mountain_foreground" data-name="mountain foreground">
    <path id="right_top" data-name="right top" class="cls-1" d="M404.27,206.89c-1.01,10.29-1.76,21.21-7,30.31-3.44,6.24-7.33,10.27-10.14,15.86-5.36,11.77-8.66,25.31-12.9,37.55-.98,3.11-1.71,5.66-1.89,7.3-.06.8-.13,1.47.24,2.05,1.74,2.32,15.23-13.59,13.98-6.25-5.08,21.96-20.5,67.51-25.58,87.98-1.38,5.42-3.27,8.89-6.85,13.61-4.94,6.47-12,15.64-16.59,20.89-5.32,5.95-5.02,1.9-3.38-5.19,6.29-27.6,19.53-79.91,20.22-103-.31-4.12-1.5-6.84-2.01-11.71-1.37-11.55,1.04-20.85,3.85-33.33,1.14-4.99,2.35-10.19,3.5-15.12,1.31-5.67,2.42-10.14,1.95-12.06-.96-3.99-10.18,3.49-13.35,5.34-2.76,1.85-5.65,3.84-8.24,5.54-4.06,2.32-8.45,6.33-12.6,3.69-2.48-1.98-3.79-5.41-5.17-8.32-4.55-10.54-5.08-13.96-9.28-23.97,1.12,2.48,2.72,4.71,5.08,6.72,1.95,1.65,8.21,6.74,15.56,5.78,6.26-.83,10.84-5.7,15.11-12,14.5-21.43,9.14-35.3,22.22-58.23,4.69-8.22,11.37-19.93,19.56-19.55,1,.05,1.99.27,3.14.95,2.13,8.14,4.43,16.42,6.35,24,1.07,4.17,2.09,8.3,2.99,12.43,2.49,10.72,2.22,18.56,1.23,28.73Z"/>
    <g id="left_top" data-name="left top">
      <path class="cls-1" d="M242.77,60.42c-.12.62-.24,1.24-.37,1.84-.79,4.63-3.83,8.48-6.86,12.54-3.15,4.22-6.7,9.29-9.84,13.3-2.64,3.54-6.29,4.98-10.18,6.65-9.08,3.72-11.18,14.53-12.96,22.94l-.03.18c-1.24,7.73-3.65,15.65-3.5,23.44.31,5.61,3.19,11.83,2.31,17.56-1.7,8.16-4.78,16.1-7.72,23.83-4.07,9.84-8.19,21.57-12.91,31.12-3.46,7.5-7.86,13.83-8.98,22.24-.65,3.89-1.29,7.94-1.93,11.85-.36,2.57-1.23,6.09-.68,8.15.62,2.39,4.29,1.88,6.47,1.24,5.61-1.51,9.98-5.38,14.48-9.3,5.83-4.49,7.33-11.75,10.9-17.8,2.89-4.78,7.5-8.7,9.94-12.84,4.06-7,5.69-17.36,9.82-23.8,1.68-2.79,7.19-9.03,4.51-1.66-1.82,5.48-1.48,13.77-3.35,19.32-3.34,9.19-3.9,17.11-4.89,26.67-.37,4.84-1.82,8.12-3.45,12.75-1.56,4.96-5.81,9.04-6.68,14.19-.72,4.05.86,6.94.87,10.87.02,1.72-.24,3.37-.65,5.08-1.8,6.45-3.45,13.48-5.83,19.63-3.27,6.86-8.35,15.01-12.22,22.15-1.59,2.64-3.9,5.33-4.48,2-.97-6.61-1.51-20.59-2.34-26.79-.46-3.85-1.72-2.01-3.28.36-1.97,3.07-5.25,8.42-7.45,12.01-4.13,6.17-5.08,13.3-6.52,20.61-.5,2.73-.85,5.34-1.14,8.13-.63,7.5-2.02,14.66-.47,22.19.81,4.58,2.02,10.96,2.79,15.45.75,4.36.74,6.4.48,11.58-.35,6.72-.79,16.6-1.15,22.69-.17,3.94-1.05,6.51-2.6,10.6-1.75,4.66-4.57,12.13-6.4,17-3.06,8.29-6.8,16.74-10.44,24.98-1.68,3.73-3.8,7.53-5.88,11.27-4.67-2.29-9.25-4.71-13.74-7.27.26-.46.47-.97.62-1.57,2.37-12.02,5.65-31.44,7.58-42.91.62-5.82.25-12.34.34-18.45.41-9.49-1.66-16.17-3.36-24.83-1.66-12.19-4.53-38.72-6.43-54.22-.25-7.68-6.18-4.58-8.56-9.63-.94-3.97,1.43-8.3,2.3-12.25,1.63-5.73,2.78-9.44,6.67-14.26,3.12-4.18,6.45-8.62,9.56-12.79,3.73-5.04,6.35-8,8.61-13.78,3.13-7.29,6.05-15.2,9.4-22.28,2.98-5.76,8.66-14.47,11.24-19.18,4.14-7.26-19.82,17.58-20.72,15.34-.26-.58,2.05-6.49,2.22-7.34.89-4.33,6.68-13.13,7.94-18.83,1.89-9.56,5.86-18.68,9.13-28.09,2.6-8.3,8.36-14.97,13.08-22.22,4.29-5.97,5.92-10.07,8-16.42,1.9-5.3,2.93-9.57,2.72-15.65-.04-3.24-.08-6.82-.16-9.99-.07-2.05-.18-3.29-.47-3.4-.57.08-.85,1.29-1.22,2-3.22,7.5-8.04,22.15-12.21,30.28-1.56,2.24-3.07,3.39-5.41,5.71-4.56,4.23-9.79,9.47-14.66,14.13,1.47-5.74,3.29-12.43,5.93-20.41,8.1-24.5,16.69-51.34,37.77-70.89,6.15-5.69,26.22-12.24,43.59-14.66.96-.13,1.91-.26,2.85-.36Z"/>
    </g>
    <g id="bottom">
      <path class="cls-1" d="M280.64,452.5c-1.27,9.71-4.12,30-6.4,46.34h-.01c-5,.48-10.04.82-15.13,1,.82-5.2,1.67-10.56,2.34-14.93.93-5.73,1.03-9.15-.26-13.96-.8-2.12-4-16.51-6.95-14.84-1.37.8-2.24,2.67-3.13,4.11-2.88,5.19-7.23,13.76-9.52,17.73-2.16,3.75-2.85,3.35-2.9-1.92-.08-7.46-.02-15.79-.04-23.35,0-8.55.01-14.55,0-23.13-.13-5.76.43-11.43-.79-16.86-.8-3.26-2.65-6.1-4.63-8.8-4.16-5.61-8.93-11.3-13.62-16.37-5.12-5.2-5.06-9.92-1.47-15.8,2.39-4.23,5.64-9.71,7.96-13.75,1.7-3.06,3.61-6.11,4.27-9.52.79-5.88-.08-11.37-.16-17.89-.29-7.25-.6-14.91-.89-22.13-.25-5.37-.6-10.26,2.6-13.72,4.56-5.33,10.38-10.71,15.31-15.59,2.74-2.56,5.04-4.19,5.88-.45,1.22,5.25,1.04,15.55,2.69,21.97,1.27,5.19,4.68,9.87,7.65,14.42,5.75,7.9,6.21,15.04,5.91,24.56-.03,21.59-11.68,20.85-5.89,45.55,1.87,9.2,2.37,17.23,2.37,27.23.26,11.1.36,24.66.72,35.29.15,2.44.52,2.79,1.47.82,2.39-5.27,5-13.45,7.12-18.11,3.15-7.62,3.92,5.65,4.54,8,.74,5.02,1.54,9.38.96,14.1Z"/>
    </g>
  </g>
</svg>